<svg width="54" height="54" viewBox="0 0 54 54" fill="none" xmlns="http://www.w3.org/2000/svg">
<g clip-path="url(#clip0_1_761)">
<path opacity="0.1" d="M46.0919 9.90811C41.0284 4.84463 34.1608 2 27 2C19.8392 2 12.9716 4.84464 7.90812 9.90812C2.84463 14.9716 -2.27618e-07 21.8392 0 29C2.27618e-07 36.1608 2.84463 43.0284 7.90812 48.0919L27 29L46.0919 9.90811Z" fill="#22B286"/>
<path d="M9.12589 32.4105C7.21822 32.4025 5.58825 31.8994 4.23597 30.9013C2.8837 29.9032 1.84937 28.4503 1.13299 26.5426C0.416608 24.6349 0.0584163 22.3369 0.0584163 19.6484C0.0584163 16.968 0.416608 14.678 1.13299 12.7784C1.85742 10.8788 2.89577 9.42992 4.24805 8.43182C5.60837 7.43371 7.23432 6.93466 9.12589 6.93466C11.0175 6.93466 12.6394 7.43774 13.9917 8.44389C15.3439 9.442 16.3783 10.8909 17.0946 12.7905C17.8191 14.6821 18.1813 16.968 18.1813 19.6484C18.1813 22.3449 17.8231 24.647 17.1067 26.5547C16.3903 28.4543 15.356 29.9072 14.0037 30.9134C12.6515 31.9115 11.0255 32.4105 9.12589 32.4105ZM9.12589 29.1868C10.8001 29.1868 12.1081 28.3698 13.0499 26.7358C13.9997 25.1018 14.4746 22.7393 14.4746 19.6484C14.4746 17.5959 14.2573 15.8613 13.8226 14.4446C13.396 13.0199 12.7802 11.9413 11.9753 11.2088C11.1784 10.4683 10.2286 10.098 9.12589 10.098C7.45969 10.098 6.15169 10.919 5.20188 12.5611C4.25207 14.2031 3.77314 16.5656 3.76509 19.6484C3.76509 21.709 3.9784 23.4517 4.40501 24.8764C4.83967 26.2931 5.45543 27.3677 6.25231 28.1001C7.04918 28.8246 8.00704 29.1868 9.12589 29.1868ZM31.0732 32.3381C29.415 32.3381 27.9339 32.0523 26.63 31.4808C25.334 30.9093 24.3078 30.1165 23.5511 29.1023C22.8026 28.08 22.4001 26.8968 22.3438 25.5526H26.1349C26.1832 26.285 26.4287 26.9209 26.8714 27.4602C27.3222 27.9915 27.9098 28.402 28.6342 28.6918C29.3587 28.9815 30.1636 29.1264 31.049 29.1264C32.023 29.1264 32.8842 28.9574 33.6328 28.6193C34.3894 28.2812 34.9811 27.8104 35.4077 27.2067C35.8343 26.5949 36.0476 25.8906 36.0476 25.0938C36.0476 24.2647 35.8343 23.5362 35.4077 22.9084C34.9891 22.2725 34.3733 21.7734 33.5604 21.4112C32.7554 21.049 31.7815 20.8679 30.6385 20.8679H28.5497V17.8253H30.6385C31.5561 17.8253 32.361 17.6603 33.0533 17.3303C33.7536 17.0002 34.3009 16.5414 34.6953 15.9538C35.0897 15.3582 35.2869 14.6619 35.2869 13.8651C35.2869 13.1004 35.1139 12.4363 34.7678 11.8729C34.4297 11.3014 33.9467 10.8546 33.3189 10.5327C32.6991 10.2107 31.9666 10.0497 31.1214 10.0497C30.3165 10.0497 29.5639 10.1986 28.8636 10.4964C28.1714 10.7862 27.608 11.2048 27.1733 11.7521C26.7386 12.2914 26.5052 12.9394 26.473 13.696H22.8629C22.9032 12.3598 23.2976 11.1847 24.0462 10.1705C24.8028 9.15625 25.8009 8.3634 27.0405 7.7919C28.2801 7.22041 29.6565 6.93466 31.1697 6.93466C32.7554 6.93466 34.1238 7.24455 35.2749 7.86435C36.4339 8.47609 37.3274 9.29309 37.9553 10.3153C38.5911 11.3376 38.9051 12.4564 38.897 13.6719C38.9051 15.0563 38.5187 16.2315 37.7379 17.1974C36.9652 18.1634 35.9349 18.8113 34.647 19.1413V19.3345C36.2891 19.584 37.5608 20.236 38.4624 21.2905C39.3719 22.3449 39.8227 23.6529 39.8146 25.2145C39.8227 26.5748 39.4444 27.7943 38.6797 28.8729C37.9231 29.9515 36.8887 30.8007 35.5767 31.4205C34.2647 32.0322 32.7635 32.3381 31.0732 32.3381Z" fill="#22B286"/>
</g>
<defs>
<clipPath id="clip0_1_761">
<rect width="54" height="54" fill="white"/>
</clipPath>
</defs>
</svg>
