<svg width="54" height="54" viewBox="0 0 54 54" fill="none" xmlns="http://www.w3.org/2000/svg">
<g clip-path="url(#clip0_1_737)">
<path opacity="0.1" d="M7.90812 9.90811C12.9716 4.84463 19.8392 2 27 2C34.1608 2 41.0284 4.84464 46.0919 9.90812C51.1554 14.9716 54 21.8392 54 29C54 36.1608 51.1554 43.0284 46.0919 48.0919L27 29L7.90812 9.90811Z" fill="#22B286"/>
<path d="M8.79386 32.4105C6.88619 32.4025 5.25621 31.8994 3.90394 30.9013C2.55167 29.9032 1.51734 28.4503 0.800959 26.5426C0.0845763 24.6349 -0.273615 22.3369 -0.273615 19.6484C-0.273615 16.968 0.0845763 14.678 0.800959 12.7784C1.52539 10.8788 2.56374 9.42992 3.91602 8.43182C5.27634 7.43371 6.90228 6.93466 8.79386 6.93466C10.6854 6.93466 12.3074 7.43774 13.6596 8.44389C15.0119 9.442 16.0462 10.8909 16.7626 12.7905C17.487 14.6821 17.8493 16.968 17.8493 19.6484C17.8493 22.3449 17.4911 24.647 16.7747 26.5547C16.0583 28.4543 15.024 29.9072 13.6717 30.9134C12.3194 31.9115 10.6935 32.4105 8.79386 32.4105ZM8.79386 29.1868C10.4681 29.1868 11.7761 28.3698 12.7179 26.7358C13.6677 25.1018 14.1426 22.7393 14.1426 19.6484C14.1426 17.5959 13.9252 15.8613 13.4906 14.4446C13.064 13.0199 12.4482 11.9413 11.6433 11.2088C10.8464 10.4683 9.8966 10.098 8.79386 10.098C7.12766 10.098 5.81966 10.919 4.86985 12.5611C3.92004 14.2031 3.44111 16.5656 3.43306 19.6484C3.43306 21.709 3.64637 23.4517 4.07298 24.8764C4.50764 26.2931 5.1234 27.3677 5.92028 28.1001C6.71715 28.8246 7.67501 29.1868 8.79386 29.1868ZM21.6133 27.1705V24.152L32.2987 7.27273H34.6772V11.7159H33.168L25.5252 23.8139V24.0071H40.1708V27.1705H21.6133ZM33.337 32V26.2528L33.3612 24.8764V7.27273H36.8988V32H33.337Z" fill="#22B286"/>
</g>
<defs>
<clipPath id="clip0_1_737">
<rect width="54" height="54" fill="white"/>
</clipPath>
</defs>
</svg>
