<svg width="54" height="54" viewBox="0 0 54 54" fill="none" xmlns="http://www.w3.org/2000/svg">
<g clip-path="url(#clip0_1_753)">
<path opacity="0.1" d="M46.0919 9.90811C41.0284 4.84463 34.1608 2 27 2C19.8392 2 12.9716 4.84464 7.90812 9.90812C2.84463 14.9716 -2.27618e-07 21.8392 0 29C2.27618e-07 36.1608 2.84463 43.0284 7.90812 48.0919L27 29L46.0919 9.90811Z" fill="#22B286"/>
<path d="M9.95597 32.4105C8.0483 32.4025 6.41832 31.8994 5.06605 30.9013C3.71378 29.9032 2.67945 28.4503 1.96307 26.5426C1.24669 24.6349 0.888494 22.3369 0.888494 19.6484C0.888494 16.968 1.24669 14.678 1.96307 12.7784C2.6875 10.8788 3.72585 9.42992 5.07812 8.43182C6.43845 7.43371 8.06439 6.93466 9.95597 6.93466C11.8475 6.93466 13.4695 7.43774 14.8217 8.44389C16.174 9.442 17.2083 10.8909 17.9247 12.7905C18.6491 14.6821 19.0114 16.968 19.0114 19.6484C19.0114 22.3449 18.6532 24.647 17.9368 26.5547C17.2204 28.4543 16.1861 29.9072 14.8338 30.9134C13.4815 31.9115 11.8556 32.4105 9.95597 32.4105ZM9.95597 29.1868C11.6302 29.1868 12.9382 28.3698 13.88 26.7358C14.8298 25.1018 15.3047 22.7393 15.3047 19.6484C15.3047 17.5959 15.0874 15.8613 14.6527 14.4446C14.2261 13.0199 13.6103 11.9413 12.8054 11.2088C12.0085 10.4683 11.0587 10.098 9.95597 10.098C8.28977 10.098 6.98177 10.919 6.03196 12.5611C5.08215 14.2031 4.60322 16.5656 4.59517 19.6484C4.59517 21.709 4.80848 23.4517 5.23509 24.8764C5.66974 26.2931 6.28551 27.3677 7.08239 28.1001C7.87926 28.8246 8.83712 29.1868 9.95597 29.1868ZM31.4565 32.3381C29.9432 32.3381 28.5829 32.0483 27.3755 31.4688C26.1762 30.8812 25.2183 30.0762 24.502 29.054C23.7856 28.0317 23.4032 26.8646 23.3549 25.5526H26.9771C27.0656 26.6151 27.5365 27.4884 28.3897 28.1726C29.243 28.8568 30.2652 29.1989 31.4565 29.1989C32.4063 29.1989 33.2475 28.9815 33.9799 28.5469C34.7205 28.1042 35.3 27.4964 35.7186 26.7237C36.1452 25.951 36.3585 25.0696 36.3585 24.0795C36.3585 23.0734 36.1412 22.1759 35.7065 21.3871C35.2718 20.5982 34.6722 19.9785 33.9075 19.5277C33.1509 19.0769 32.2815 18.8475 31.2995 18.8395C30.551 18.8395 29.7984 18.9683 29.0417 19.2259C28.2851 19.4834 27.6734 19.8215 27.2065 20.2401L23.7896 19.733L25.1781 7.27273H38.7733V10.4723H28.2811L27.4963 17.3906H27.6412C28.1241 16.9238 28.764 16.5334 29.5609 16.2195C30.3658 15.9055 31.2271 15.7486 32.1447 15.7486C33.6499 15.7486 34.9901 16.1068 36.1653 16.8232C37.3485 17.5395 38.2782 18.5175 38.9544 19.7571C39.6386 20.9886 39.9766 22.4053 39.9686 24.0071C39.9766 25.6089 39.6144 27.0376 38.8819 28.2933C38.1575 29.549 37.1513 30.5391 35.8635 31.2635C34.5836 31.9799 33.1146 32.3381 31.4565 32.3381Z" fill="#22B286"/>
</g>
<defs>
<clipPath id="clip0_1_753">
<rect width="54" height="54" fill="white"/>
</clipPath>
</defs>
</svg>
