<svg width="54" height="54" viewBox="0 0 54 54" fill="none" xmlns="http://www.w3.org/2000/svg">
<g clip-path="url(#clip0_1_745)">
<path opacity="0.1" d="M7.90812 9.90811C12.9716 4.84463 19.8392 2 27 2C34.1608 2 41.0284 4.84464 46.0919 9.90812C51.1554 14.9716 54 21.8392 54 29C54 36.1608 51.1554 43.0284 46.0919 48.0919L27 29L7.90812 9.90811Z" fill="#22B286"/>
<path d="M10.1884 32.4105C8.28072 32.4025 6.65075 31.8994 5.29847 30.9013C3.9462 29.9032 2.91187 28.4503 2.19549 26.5426C1.47911 24.6349 1.12092 22.3369 1.12092 19.6484C1.12092 16.968 1.47911 14.678 2.19549 12.7784C2.91992 10.8788 3.95827 9.42992 5.31055 8.43182C6.67087 7.43371 8.29682 6.93466 10.1884 6.93466C12.08 6.93466 13.7019 7.43774 15.0542 8.44389C16.4064 9.442 17.4408 10.8909 18.1571 12.7905C18.8816 14.6821 19.2438 16.968 19.2438 19.6484C19.2438 22.3449 18.8856 24.647 18.1692 26.5547C17.4528 28.4543 16.4185 29.9072 15.0662 30.9134C13.714 31.9115 12.088 32.4105 10.1884 32.4105ZM10.1884 29.1868C11.8626 29.1868 13.1706 28.3698 14.1124 26.7358C15.0622 25.1018 15.5371 22.7393 15.5371 19.6484C15.5371 17.5959 15.3198 15.8613 14.8851 14.4446C14.4585 13.0199 13.8427 11.9413 13.0378 11.2088C12.2409 10.4683 11.2911 10.098 10.1884 10.098C8.52219 10.098 7.21419 10.919 6.26438 12.5611C5.31457 14.2031 4.83564 16.5656 4.82759 19.6484C4.82759 21.709 5.0409 23.4517 5.46751 24.8764C5.90217 26.2931 6.51793 27.3677 7.31481 28.1001C8.11168 28.8246 9.06954 29.1868 10.1884 29.1868ZM23.527 32V29.2955L31.8942 20.6264C32.7876 19.6847 33.5241 18.8596 34.1037 18.1513C34.6913 17.4349 35.13 16.7547 35.4197 16.1108C35.7095 15.4669 35.8544 14.7827 35.8544 14.0582C35.8544 13.2372 35.6612 12.5289 35.2749 11.9332C34.8885 11.3295 34.3613 10.8667 33.6932 10.5447C33.0251 10.2147 32.2725 10.0497 31.4354 10.0497C30.55 10.0497 29.7772 10.2308 29.1172 10.593C28.4571 10.9553 27.95 11.4664 27.5959 12.1264C27.2417 12.7865 27.0646 13.5592 27.0646 14.4446H23.5028C23.5028 12.9394 23.849 11.6233 24.5412 10.4964C25.2334 9.36955 26.1832 8.49621 27.3906 7.87642C28.598 7.24858 29.9704 6.93466 31.5078 6.93466C33.0613 6.93466 34.4297 7.24455 35.6129 7.86435C36.8042 8.47609 37.7339 9.31321 38.402 10.3757C39.0701 11.4302 39.4041 12.6214 39.4041 13.9496C39.4041 14.8672 39.2311 15.7647 38.8849 16.642C38.5469 17.5194 37.9553 18.4974 37.1101 19.576C36.2649 20.6465 35.0897 21.9465 33.5845 23.4759L28.6705 28.6193V28.8004H39.8026V32H23.527Z" fill="#22B286"/>
</g>
<defs>
<clipPath id="clip0_1_745">
<rect width="54" height="54" fill="white"/>
</clipPath>
</defs>
</svg>
