<svg width="54" height="54" viewBox="0 0 54 54" fill="none" xmlns="http://www.w3.org/2000/svg">
<g clip-path="url(#clip0_1_769)">
<path opacity="0.1" d="M7.90812 9.90811C12.9716 4.84463 19.8392 2 27 2C34.1608 2 41.0284 4.84464 46.0919 9.90812C51.1554 14.9716 54 21.8392 54 29C54 36.1608 51.1554 43.0284 46.0919 48.0919L27 29L7.90812 9.90811Z" fill="#22B286"/>
<path d="M9.42472 32.4105C7.51705 32.4025 5.88707 31.8994 4.5348 30.9013C3.18253 29.9032 2.1482 28.4503 1.43182 26.5426C0.715436 24.6349 0.357244 22.3369 0.357244 19.6484C0.357244 16.968 0.715436 14.678 1.43182 12.7784C2.15625 10.8788 3.1946 9.42992 4.54688 8.43182C5.9072 7.43371 7.53314 6.93466 9.42472 6.93466C11.3163 6.93466 12.9382 7.43774 14.2905 8.44389C15.6428 9.442 16.6771 10.8909 17.3935 12.7905C18.1179 14.6821 18.4801 16.968 18.4801 19.6484C18.4801 22.3449 18.1219 24.647 17.4055 26.5547C16.6892 28.4543 15.6548 29.9072 14.3026 30.9134C12.9503 31.9115 11.3243 32.4105 9.42472 32.4105ZM9.42472 29.1868C11.099 29.1868 12.407 28.3698 13.3487 26.7358C14.2985 25.1018 14.7734 22.7393 14.7734 19.6484C14.7734 17.5959 14.5561 15.8613 14.1214 14.4446C13.6948 13.0199 13.0791 11.9413 12.2741 11.2088C11.4773 10.4683 10.5275 10.098 9.42472 10.098C7.75852 10.098 6.45052 10.919 5.50071 12.5611C4.5509 14.2031 4.07197 16.5656 4.06392 19.6484C4.06392 21.709 4.27723 23.4517 4.70384 24.8764C5.13849 26.2931 5.75426 27.3677 6.55114 28.1001C7.34801 28.8246 8.30587 29.1868 9.42472 29.1868ZM31.3961 32.3381C30.2934 32.322 29.2067 32.1207 28.1362 31.7344C27.0737 31.348 26.1078 30.7041 25.2385 29.8026C24.3691 28.901 23.6729 27.6896 23.1497 26.1683C22.6345 24.647 22.377 22.7474 22.377 20.4695C22.377 18.3123 22.5903 16.3965 23.0169 14.7223C23.4515 13.0481 24.0753 11.6354 24.8883 10.4844C25.7013 9.32528 26.6833 8.44389 27.8343 7.8402C28.9854 7.2365 30.2773 6.93466 31.71 6.93466C33.1831 6.93466 34.4911 7.22443 35.6341 7.80398C36.777 8.38352 37.7027 9.18442 38.411 10.2067C39.1274 11.2289 39.5822 12.392 39.7754 13.696H36.0929C35.8433 12.6657 35.3483 11.8246 34.6078 11.1726C33.8672 10.5206 32.9013 10.1946 31.71 10.1946C29.899 10.1946 28.4863 10.9834 27.4721 12.5611C26.466 14.1387 25.9589 16.3321 25.9508 19.1413H26.1319C26.5585 18.4411 27.0817 17.8454 27.7015 17.3544C28.3294 16.8553 29.0297 16.473 29.8024 16.2074C30.5832 15.9337 31.4042 15.7969 32.2654 15.7969C33.6982 15.7969 34.9941 16.147 36.1532 16.8473C37.3204 17.5395 38.2501 18.4974 38.9423 19.7209C39.6345 20.9444 39.9806 22.3449 39.9806 23.9226C39.9806 25.5002 39.6225 26.929 38.9061 28.2088C38.1977 29.4886 37.1996 30.5028 35.9118 31.2514C34.6239 31.992 33.1187 32.3542 31.3961 32.3381ZM31.3841 29.1989C32.3339 29.1989 33.1831 28.9654 33.9316 28.4986C34.6802 28.0317 35.2718 27.4039 35.7065 26.6151C36.1412 25.8262 36.3585 24.9448 36.3585 23.9709C36.3585 23.0211 36.1452 22.1558 35.7186 21.375C35.3 20.5942 34.7205 19.9744 33.9799 19.5156C33.2475 19.0568 32.4103 18.8274 31.4686 18.8274C30.7522 18.8274 30.0881 18.9643 29.4764 19.2379C28.8727 19.5116 28.3414 19.8899 27.8826 20.3729C27.4238 20.8558 27.0616 21.4112 26.796 22.0391C26.5384 22.6589 26.4096 23.3149 26.4096 24.0071C26.4096 24.9328 26.6229 25.79 27.0495 26.5788C27.4842 27.3677 28.0758 28.0036 28.8244 28.4865C29.581 28.9614 30.4342 29.1989 31.3841 29.1989Z" fill="#22B286"/>
</g>
<defs>
<clipPath id="clip0_1_769">
<rect width="54" height="54" fill="white"/>
</clipPath>
</defs>
</svg>
