<svg width="54" height="54" viewBox="0 0 54 54" fill="none" xmlns="http://www.w3.org/2000/svg">
<g clip-path="url(#clip0_1_729)">
<path opacity="0.1" d="M46.0919 9.90811C41.0284 4.84463 34.1608 2 27 2C19.8392 2 12.9716 4.84464 7.90812 9.90812C2.84463 14.9716 -2.27618e-07 21.8392 0 29C2.27618e-07 36.1608 2.84463 43.0284 7.90812 48.0919L27 29L46.0919 9.90811Z" fill="#22B286"/>
<path d="M14.9696 32.4105C13.062 32.4025 11.432 31.8994 10.0797 30.9013C8.72745 29.9032 7.69312 28.4503 6.97674 26.5426C6.26036 24.6349 5.90217 22.3369 5.90217 19.6484C5.90217 16.968 6.26036 14.678 6.97674 12.7784C7.70117 10.8788 8.73952 9.42992 10.0918 8.43182C11.4521 7.43371 13.0781 6.93466 14.9696 6.93466C16.8612 6.93466 18.4831 7.43774 19.8354 8.44389C21.1877 9.442 22.222 10.8909 22.9384 12.7905C23.6628 14.6821 24.025 16.968 24.025 19.6484C24.025 22.3449 23.6668 24.647 22.9505 26.5547C22.2341 28.4543 21.1998 29.9072 19.8475 30.9134C18.4952 31.9115 16.8693 32.4105 14.9696 32.4105ZM14.9696 29.1868C16.6439 29.1868 17.9519 28.3698 18.8936 26.7358C19.8435 25.1018 20.3184 22.7393 20.3184 19.6484C20.3184 17.5959 20.101 15.8613 19.6664 14.4446C19.2398 13.0199 18.624 11.9413 17.8191 11.2088C17.0222 10.4683 16.0724 10.098 14.9696 10.098C13.3034 10.098 11.9954 10.919 11.0456 12.5611C10.0958 14.2031 9.61689 16.5656 9.60884 19.6484C9.60884 21.709 9.82215 23.4517 10.2488 24.8764C10.6834 26.2931 11.2992 27.3677 12.0961 28.1001C12.8929 28.8246 13.8508 29.1868 14.9696 29.1868ZM37.6896 7.27273V32H33.9467V11.0156H33.8018L27.8857 14.8793V11.3054L34.0554 7.27273H37.6896Z" fill="#22B286"/>
</g>
<defs>
<clipPath id="clip0_1_729">
<rect width="54" height="54" fill="white"/>
</clipPath>
</defs>
</svg>
